<?xml version="1.0" encoding="UTF-8"?>
<!DOCTYPE svg PUBLIC "-//W3C//DTD SVG 1.0//EN" "http://www.w3.org/TR/2001/REC-SVG-20010904/DTD/svg10.dtd">
<svg xmlns="http://www.w3.org/2000/svg" width="1000" height="1200">
    <desc></desc>
    <g transform="translate(200 550)">
        
        <!-- bar width = 50 -->
        <!-- Xinterval = 10 -->
        <!-- Yinterval = -5 -->
        <!-- max Y value = -300-->
        
        <!-- Graph Title -->
        <text x="-100" y="-350" style="font-family:sans-serif;font-size:30px">Figurative Language Use Among Harlem Renaissance Poets</text>
        
        <!-- X-axis Line -->  
        <line x1="0" y1="0" x2="550" y2="0" stroke="black" stroke-width="2"/>
        
        <!-- Y-axis Line -->
        <line x1="0" y1="0" x2="0" y2="-300" stroke="black" stroke-width="2"/>
        
        <!-- X-axis Labels -->
        <text x="30" y="25" style="font-family:sans-serif;font-size:20px;writing-mode:tb" fill="black">McKay</text>
        <text x="110" y="25" style="font-family:sans-serif;font-size:20px;writing-mode:tb" fill="black">Hughes</text>
        <text x="190" y="25" style="font-family:sans-serif;font-size:20px;writing-mode:tb" fill="black">Spencer</text>
        <text x="270" y="25" style="font-family:sans-serif;font-size:20px;writing-mode:tb" fill="black">Johnson</text>
        <text x="350" y="25" style="font-family:sans-serif;font-size:20px;writing-mode:tb" fill="black">Bontemps</text>
        <text x="430" y="25" style="font-family:sans-serif;font-size:20px;writing-mode:tb" fill="black">Newsome</text>
        <text x="510" y="25" style="font-family:sans-serif;font-size:20px;writing-mode:tb" fill="black">Popel</text>
        
       <!-- Y-axis Labels & Hashmarks -->
        <line x1="0" y1="-75" x2="550" y2="-70" stroke="purple" stroke-width="1" stroke-dasharray="10"/>
        <text x="-50" y="-70" style="font-family:sans-serif;font-size:20px">25%</text>
        <line x1="0" y1="-150" x2="550" y2="-145" stroke="purple" stroke-width="1" stroke-dasharray="10"/>
        <text x="-50" y="-145" style="font-family:sans-serif;font-size:20px">50%</text>
        <line x1="0" y1="-225" x2="550" y2="-220" stroke="purple" stroke-width="1" stroke-dasharray="10"/>
        <text x="-50" y="-220" style="font-family:sans-serif;font-size:20px">75%</text>
        <line x1="0" y1="-300" x2="550" y2="-295" stroke="purple" stroke-width="1" stroke-dasharray="10"/>
        <text x="-55" y="-295" style="font-family:sans-serif;font-size:20px">100%</text>
        
        <!-- Bars -->
                    <!-- McKay -->
        <rect x="10" y="-25" height="24.9" width="50" fill="red"/>
        <rect x="10" y="-100" height="75" width="50" fill="blue"/>
        <rect x="10" y="-300" height="200" width="50" fill="green"/>
                    <!-- Hughes -->
        <rect x="90" y="-100" height="100" width="50" fill="red"/>
        <rect x="90" y="-250" height="150" width="50" fill="blue"/>
        <rect x="90" y="-300" height="50" width="50" fill="green"/>
        
                    <!-- Spencer -->
        <rect x="170" y="-133" height="133" width="50" fill="red"/>
        <rect x="170" y="-150" height="17" width="50" fill="blue"/>
        <rect x="170" y="-300" height="150" width="50" fill="green"/>
        
                    <!-- Johnson -->
        <rect x="250" y="-73" height="73" width="50" fill="red"/>
        <rect x="250" y="-140" height="67" width="50" fill="blue"/>
        <rect x="250" y="-300" height="160" width="50" fill="green"/>
        
                    <!-- Bontemps -->
        <rect x="330" y="-17" height="17" width="50" fill="red"/>
        <rect x="330" y="-67" height="50" width="50" fill="blue"/>
        <rect x="330" y="-300" height="233" width="50" fill="green"/>
       
                     <!-- Newsome -->
        <rect x="410" y="-55" height="55" width="50" fill="red"/>
        <rect x="410" y="-219" height="164" width="50" fill="blue"/>
        <rect x="410" y="-300" height="81" width="50" fill="green"/>
        
                      <!-- Popel -->
        <rect x="485" y="-67" height="67" width="50" fill="red"/>
        <rect x="485" y="-100" height="33" width="50" fill="blue"/>
        <rect x="485" y="-300" height="200" width="50" fill="green"/>
    </g>
</svg>